<?xml version="1.0" standalone="no"?>
<!DOCTYPE svg PUBLIC "-//W3C//DTD SVG 20010904//EN"
 "http://www.w3.org/TR/2001/REC-SVG-20010904/DTD/svg10.dtd">
<svg version="1.0" xmlns="http://www.w3.org/2000/svg"
 width="400.000000pt" height="400.000000pt" viewBox="0 0 400.000000 400.000000"
 preserveAspectRatio="xMidYMid meet">
<metadata>
Created by potrace 1.11, written by Peter Selinger 2001-2013
</metadata>
<g transform="translate(0.000000,400.000000) scale(0.100000,-0.100000)"
fill="#000000" stroke="none">
<path d="M594 2783 c-16 -11 -34 -48 -34 -69 0 -21 460 -487 505 -512 27 -15
104 -17 796 -22 l766 -5 39 -27 c58 -41 79 -81 78 -155 0 -51 -5 -67 -28 -98
-60 -79 -29 -75 -603 -75 -311 0 -522 -4 -538 -10 -31 -12 -50 -56 -37 -85 17
-36 455 -476 497 -499 37 -20 57 -21 285 -24 271 -4 393 7 499 43 351 119 576
476 531 843 -25 203 -99 362 -230 492 -90 90 -154 131 -283 178 l-72 27 -1080
2 c-594 2 -1085 0 -1091 -4z"/>
</g>
</svg>
